<?xml version="1.0" encoding="utf-8"?>
<svg xmlns="http://www.w3.org/2000/svg" width="500" zoomAndPan="magnify" viewBox="0 0 375 375" height="500"
     preserveAspectRatio="xMidYMid meet" version="1.0">
    <defs>
        <clipPath id="596671badd">
            <path d="M 43.429688 37.5 L 331.183594 37.5 L 331.183594 327.535156 L 43.429688 327.535156 Z M 43.429688 37.5 "
                  clip-rule="nonzero"/>
        </clipPath>
        <clipPath id="4db027ec38">
            <path d="M 96.40625 125 L 245 125 L 245 284.710938 L 96.40625 284.710938 Z M 96.40625 125 "
                  clip-rule="nonzero"/>
        </clipPath>
    </defs>
    <g clip-path="url(#596671badd)">
        <path fill="#699f8e"
              d="M 329.597656 128.914062 C 327.960938 119.398438 325.304688 110.179688 321.34375 101.339844 C 315.449219 88.175781 307.390625 76.582031 296.796875 66.746094 C 288.050781 58.621094 278.199219 52.25 267.285156 47.460938 C 254.4375 41.820312 240.964844 38.777344 226.996094 38.078125 C 215.382812 37.488281 203.835938 38.363281 192.40625 40.710938 C 175.308594 44.214844 159.363281 50.621094 144.300781 59.347656 C 141.152344 61.167969 138.210938 63.300781 134.703125 64.542969 C 124.871094 68.015625 115.589844 72.664062 106.804688 78.289062 C 97.464844 84.269531 88.933594 91.234375 81.238281 99.230469 C 76.375 104.28125 71.917969 109.65625 67.878906 115.375 C 61.121094 124.945312 55.738281 135.25 51.667969 146.246094 C 46.988281 158.882812 44.371094 171.929688 43.742188 185.359375 C 43.503906 190.269531 43.574219 195.1875 43.898438 200.109375 C 44.253906 205.527344 44.863281 210.898438 45.90625 216.203125 C 49.285156 233.410156 55.785156 249.371094 65.429688 264.019531 C 72.527344 274.789062 80.988281 284.359375 90.78125 292.765625 C 99.683594 300.398438 109.382812 306.785156 119.859375 312.023438 C 128.179688 316.175781 136.820312 319.5 145.792969 321.957031 C 157.113281 325.050781 168.625 326.832031 180.371094 327.140625 C 184.421875 327.253906 188.464844 327.140625 192.507812 327.046875 C 195.4375 326.976562 198.375 326.753906 201.28125 326.398438 C 208.664062 325.488281 215.972656 324.152344 223.160156 322.207031 C 232.824219 319.585938 242.148438 316.054688 251.058594 311.507812 C 260.75 306.5625 269.773438 300.589844 278.117188 293.582031 C 285.296875 287.558594 291.785156 280.890625 297.601562 273.570312 C 304.886719 264.394531 310.808594 254.382812 315.507812 243.644531 C 319.195312 235.214844 321.945312 226.46875 323.828125 217.480469 C 325.757812 208.296875 326.644531 198.980469 326.355469 189.570312 C 326.308594 188.183594 326.535156 186.855469 326.863281 185.519531 C 329.710938 174.035156 331.472656 162.40625 331.230469 149.894531 C 331.488281 143.265625 330.824219 136.050781 329.597656 128.914062 Z M 321.382812 209.0625 C 320.269531 216.941406 318.554688 224.6875 315.953125 232.222656 C 312.132812 243.296875 307.011719 253.726562 300.378906 263.414062 C 295.929688 269.914062 290.980469 275.972656 285.5 281.636719 C 276.984375 290.429688 267.425781 297.871094 256.894531 304.074219 C 244.039062 311.640625 230.304688 316.996094 215.746094 320.210938 C 210.113281 321.453125 204.421875 322.296875 198.675781 322.871094 C 194.226562 323.3125 189.78125 323.390625 185.328125 323.46875 C 167.273438 323.769531 149.917969 320.292969 133.125 313.867188 C 119.625 308.699219 107.257812 301.484375 96.042969 292.378906 C 84.15625 282.714844 74.148438 271.355469 66.160156 258.226562 C 59.171875 246.738281 54.074219 234.5 50.898438 221.457031 C 49.160156 214.328125 48.074219 207.085938 47.578125 199.746094 C 47.238281 194.824219 47.175781 189.898438 47.421875 185 C 47.933594 174.867188 49.667969 164.910156 52.582031 155.171875 C 55.007812 147.089844 58.171875 139.304688 62.121094 131.851562 C 66.691406 123.226562 72.121094 115.195312 78.484375 107.769531 C 87.160156 97.640625 97.082031 88.980469 108.273438 81.761719 C 112.953125 78.746094 117.734375 75.882812 122.847656 73.632812 C 122.949219 73.722656 123.046875 73.816406 123.140625 73.910156 C 119.792969 76.832031 116.34375 79.652344 113.101562 82.703125 C 102.570312 92.605469 93.308594 103.59375 85.496094 115.765625 C 78.289062 126.984375 72.410156 138.851562 68.023438 151.460938 C 64.886719 160.476562 62.585938 169.691406 61.136719 179.109375 C 60.402344 183.851562 60.03125 188.644531 59.742188 193.453125 C 59.480469 197.917969 59.59375 202.363281 59.820312 206.8125 C 60.300781 216.296875 61.871094 225.605469 64.539062 234.722656 C 67.820312 245.949219 72.722656 256.429688 79.367188 266.0625 C 88.78125 279.691406 100.777344 290.4375 115.324219 298.375 C 125.105469 303.710938 135.472656 307.398438 146.351562 309.617188 C 153.246094 311.019531 160.234375 311.722656 167.292969 311.925781 C 188.511719 312.550781 208.703125 308.183594 228.148438 299.902344 C 242.515625 293.789062 255.738281 285.753906 267.863281 275.960938 C 277.835938 267.910156 286.808594 258.859375 294.855469 248.863281 C 302.484375 239.386719 309 229.214844 314.527344 218.398438 C 317.152344 213.253906 319.464844 207.957031 321.492188 202.546875 C 321.609375 202.230469 321.738281 201.914062 322.027344 201.167969 C 322.214844 204.136719 321.726562 206.605469 321.382812 209.0625 Z M 326.671875 165.863281 C 326.359375 168.320312 326.019531 170.777344 325.695312 173.230469 C 325.515625 173.128906 325.332031 173.03125 325.152344 172.9375 C 324.339844 166.863281 323.011719 160.890625 321.304688 155.007812 C 318.910156 146.714844 315.804688 138.679688 311.742188 131.058594 C 306.613281 121.414062 300.574219 112.386719 293.363281 104.136719 C 285.582031 95.246094 276.828125 87.460938 267.097656 80.796875 C 257.058594 73.925781 246.296875 68.429688 234.835938 64.289062 C 225.957031 61.082031 216.847656 58.765625 207.539062 57.308594 C 203.09375 56.613281 198.609375 56.214844 194.113281 55.914062 C 189.695312 55.613281 185.292969 55.632812 180.886719 55.691406 C 172.011719 55.820312 163.246094 56.992188 154.558594 58.742188 C 154.242188 58.695312 153.875 58.808594 153.660156 58.449219 C 167.769531 51.195312 182.582031 46.105469 198.246094 43.429688 C 207.628906 41.824219 217.070312 41.253906 226.542969 41.757812 C 240.5 42.496094 253.953125 45.558594 266.773438 51.296875 C 279.640625 57.0625 290.832031 65.125 300.289062 75.539062 C 311.097656 87.441406 318.542969 101.261719 322.988281 116.699219 C 325.324219 124.792969 326.78125 133.035156 327.304688 141.453125 C 327.804688 149.613281 327.699219 157.746094 326.671875 165.863281 Z M 326.671875 165.863281 "
              fill-opacity="1" fill-rule="nonzero"/>
    </g>
    <g clip-path="url(#4db027ec38)">
        <path fill="#cbe6d5"
              d="M 110.339844 242.226562 C 98.265625 190.207031 134.359375 176.589844 175.523438 161.050781 C 196.460938 153.152344 218.875 144.738281 235.957031 130.160156 L 241.929688 125.085938 L 243.019531 132.855469 C 243.085938 133.179688 261.710938 255.070312 139.367188 252.308594 L 139.433594 248.003906 L 139.433594 246.71875 L 139.496094 243.703125 C 140.460938 243.703125 141.421875 243.703125 142.386719 243.703125 C 233.835938 244.152344 236.597656 166.765625 235.121094 141.71875 C 218.039062 154.242188 197.679688 161.882812 178.480469 169.140625 C 142.707031 182.628906 111.175781 194.507812 117.597656 234.902344 C 126.78125 227.132812 138.277344 221.289062 150.414062 215.058594 C 154.203125 213.132812 158.058594 211.140625 161.910156 209.085938 C 164.800781 207.546875 167.5625 206.003906 169.230469 203.371094 C 172.570312 198.105469 170.578125 192.261719 176.617188 184.746094 C 179.699219 180.828125 192.992188 172.480469 199.15625 169.527344 C 203.203125 167.601562 206.09375 171.96875 202.242188 174.601562 C 202.175781 174.664062 188.945312 184.941406 188.945312 184.941406 C 187.085938 186.417969 185.15625 188.40625 186.378906 190.269531 C 187.339844 191.683594 189.847656 190.914062 191.707031 189.882812 C 191.835938 189.820312 206.863281 181.472656 206.863281 181.472656 C 211.039062 179.351562 213.929688 183.140625 210.203125 186.351562 C 210.203125 186.351562 196.847656 197.207031 196.71875 197.269531 C 195.113281 198.617188 193.441406 200.675781 194.40625 202.085938 C 195.625 203.949219 198.195312 202.921875 200.3125 201.703125 C 200.3125 201.703125 214.761719 193.222656 214.890625 193.160156 C 218.746094 190.527344 221.765625 194.828125 218.425781 197.914062 C 213.414062 202.535156 200.699219 211.71875 195.945312 213.195312 C 190.9375 214.675781 186.570312 214.417969 183.617188 213.773438 C 177 212.425781 172.3125 213.324219 166.46875 216.472656 C 162.421875 218.65625 158.378906 220.710938 154.394531 222.765625 C 141.101562 229.574219 128.773438 235.867188 119.71875 245.050781 C 111.238281 253.71875 105.714844 264.894531 105.074219 281.464844 C 105.011719 282.554688 105.011719 283.648438 105.011719 284.738281 L 96.40625 284.738281 C 96.46875 265.34375 101.800781 252.242188 110.339844 242.226562 "
              fill-opacity="1" fill-rule="evenodd"/>
    </g>
</svg>